<svg xmlns="http://www.w3.org/2000/svg" viewBox="0 0 64 64">
  <rect width="64" height="64" fill="#15181c"/>
  <defs>
    <linearGradient id="mint" x1="0" y1="0" x2="1" y2="1">
      <stop offset="0%" stop-color="#9be5d8"/>
      <stop offset="100%" stop-color="#66d8ca"/>
    </linearGradient>
    <linearGradient id="silver" x1="0" y1="0" x2="1" y2="1">
      <stop offset="0%" stop-color="#f0f1f2"/>
      <stop offset="100%" stop-color="#c8ced4"/>
    </linearGradient>
  </defs>

  <circle cx="32" cy="14" r="5.2" fill="#b8c8cd"/>
  <rect x="12" y="18" width="6" height="16" rx="0.8" transform="rotate(-45 15 26)" fill="url(#mint)"/>
  <rect x="46" y="18" width="6" height="16" rx="0.8" transform="rotate(45 49 26)" fill="url(#silver)"/>

  <rect x="8" y="30" width="14" height="6" rx="0.8" fill="url(#mint)"/>
  <rect x="42" y="30" width="14" height="6" rx="0.8" fill="url(#silver)"/>

  <rect x="17" y="36" width="8" height="24" rx="0.8" transform="rotate(45 21 48)" fill="url(#mint)"/>
  <rect x="39" y="36" width="8" height="24" rx="0.8" transform="rotate(-45 43 48)" fill="url(#mint)"/>

  <rect x="28" y="46" width="8" height="14" rx="0.8" fill="url(#mint)"/>
</svg>
